<svg width="1024" height="1024" viewBox="0 0 1024 1024" fill="none" xmlns="http://www.w3.org/2000/svg">
<path d="M151.276 310.256H321.005L151.276 506.728L321.005 714.449H151.276L0 506.728L151.276 310.256Z" fill="white"/>
<path d="M329.196 716.718V637.775L479.978 513.043C489.978 504.754 498.53 496.991 505.635 489.755C512.872 482.387 518.398 474.821 522.213 467.059C526.16 459.296 528.134 450.678 528.134 441.204C528.134 430.81 525.897 421.929 521.424 414.561C517.082 407.193 511.03 401.535 503.267 397.588C495.504 393.509 486.557 391.47 476.426 391.47C466.295 391.47 457.348 393.509 449.585 397.588C441.954 401.667 436.033 407.653 431.823 415.548C427.612 423.442 425.507 433.047 425.507 444.362H321.301C321.301 415.942 327.683 391.47 340.445 370.944C353.208 350.419 371.233 334.63 394.522 323.578C417.81 312.526 445.111 307 476.426 307C508.793 307 536.818 312.197 560.501 322.591C584.316 332.854 602.67 347.327 615.564 366.011C628.59 384.694 635.103 406.601 635.103 431.731C635.103 447.257 631.879 462.717 625.432 478.111C618.985 493.373 607.407 510.28 590.697 528.832C573.987 547.384 550.238 569.488 519.45 595.145L481.557 626.722V629.091H639.445V716.718H329.196Z" fill="white"/>
<path d="M675.858 653.563V568.304L838.482 312.526H915.847V426.205H871.638L784.011 565.146V568.304H1024V653.563H675.858ZM872.428 716.718V627.512L874.796 590.408V312.526H977.423V716.718H872.428Z" fill="white"/>
</svg>
