<svg width="512" height="512" viewBox="0 0 512 512" fill="none" xmlns="http://www.w3.org/2000/svg">
<path d="M0 419.882V96.4223H39.169V256.889V260.679L188.264 96.4223H239.436L103.608 242.358L239.673 419.053L191.241 418.795L79.6015 269.524L39.169 315.01V419.882H0Z" fill="white"/>
<path d="M191.241 418.795L191.05 391.453L297.817 274.578C310.347 260.89 320.665 248.992 328.773 238.884C336.881 228.67 342.882 219.089 346.778 210.139C350.779 201.083 352.78 191.607 352.78 181.71C352.78 170.338 350.042 160.493 344.567 152.175C339.197 143.857 331.826 137.434 322.455 132.906C313.084 128.379 302.555 126.115 290.867 126.115C278.443 126.115 267.598 128.695 258.332 133.854C249.172 138.908 242.064 146.015 237.01 155.176C232.061 164.336 229.587 175.076 229.587 187.395H192.313C192.313 168.443 196.683 151.806 205.422 137.487C214.162 123.167 226.06 112.006 241.117 104.003C256.279 96.0011 273.284 92 292.131 92C311.084 92 327.878 96.0011 342.514 104.003C357.149 112.006 368.626 122.798 376.944 136.381C385.263 149.964 389.422 165.073 389.422 181.71C389.422 193.608 387.263 205.243 382.946 216.614C375.185 227.91 364.778 238.811 358.246 253.97C347.822 267.763 335.933 285.002 317.401 304.902L244.749 382.608V385.136H395.108V419.882L191.241 418.795Z" fill="white"/>
<path d="M264.785 353.551L278.25 321.331L420.395 96.4253H443.77V146.334H427.976L320.577 316.277V318.804H512V353.551H264.785ZM430.503 419.885V96.4253H467.777V419.885H430.503Z" fill="white"/>
</svg>
